<svg width="211" height="52" viewBox="0 0 211 52" fill="none" xmlns="http://www.w3.org/2000/svg">
<path d="M81.8287 23.2474V20.7263H78.3145V35.2671H81.8287V23.8331H87.0236V20.7263H84.3498L81.8287 23.2474Z" fill="white"/>
<path d="M65.8617 15.8115H49.793V18.9183H56.0575V35.2162H59.6481V18.9183H65.8617V15.8115Z" fill="white"/>
<path d="M72.3551 28.8498C72.3551 31.3709 70.8271 32.5168 69.2992 32.5168C67.4657 32.5168 66.7017 31.6255 66.7017 29.4355V20.7263H63.1875V30.1231C63.1875 33.6373 64.8173 35.4199 68.0769 35.4199C70.1905 35.4199 71.5911 34.5795 72.3805 32.8733V35.2416H75.8693V20.7263H72.3551V28.8498Z" fill="white"/>
<path d="M92.2193 15.8625H88.7051V18.8929H92.2193V15.8625Z" fill="white"/>
<path d="M92.2193 20.7263H88.7051V35.2416H92.2193V20.7263Z" fill="white"/>
<path d="M102.201 20.3953C100.087 20.3953 98.6865 21.2356 97.897 22.9418V20.7263H94.3828V35.2416H97.897V26.9654C97.897 24.648 99.0175 23.2983 100.953 23.2983C102.786 23.2983 103.55 24.1896 103.55 26.3796V35.2162H107.065V25.8449C107.09 22.2033 105.486 20.3953 102.201 20.3953Z" fill="white"/>
<path d="M118.83 20.7263V22.2288C118.04 20.981 116.793 20.3953 115.036 20.3953C111.445 20.3953 108.924 23.3493 108.924 27.602C108.924 31.8802 111.445 34.8596 115.036 34.8596C116.767 34.8596 117.99 34.2739 118.779 33.1025V34.5541C118.728 37.2279 117.073 37.7882 115.698 37.7882C113.941 37.7882 112.973 37.1261 112.693 35.7L112.667 35.5727L109.128 36.1074L109.153 36.2348C109.56 39.036 111.903 40.7167 115.418 40.7167C119.899 40.7167 122.37 38.3739 122.37 34.1466L122.421 20.7263H118.83ZM119.365 27.6275C119.365 27.9076 119.365 28.1368 119.339 28.3659L119.059 29.792C118.575 31.2435 117.531 31.9566 115.85 31.9566C113.686 31.9566 112.464 30.3777 112.464 27.6275C112.464 24.8517 113.66 23.3238 115.85 23.3238C118.27 23.3493 119.365 24.7244 119.365 27.6275Z" fill="white"/>
<path d="M146.18 28.3661C146.18 23.9096 148.599 21.2612 152.673 21.2612C156.748 21.2612 159.167 23.8842 159.167 28.3661C159.167 32.8225 156.748 35.4709 152.673 35.4709C148.599 35.4455 146.18 32.8225 146.18 28.3661ZM157.461 28.3661C157.461 24.8009 155.678 22.6618 152.673 22.6618C149.643 22.6618 147.886 24.8009 147.886 28.3661C147.886 31.9313 149.668 34.0449 152.673 34.0449C155.678 34.0449 157.461 31.9313 157.461 28.3661Z" fill="white"/>
<path d="M161.18 15.8115H162.835V35.1907H161.18V15.8115Z" fill="white"/>
<path d="M165.406 15.8115H167.062V35.1653H165.406V15.8115Z" fill="white"/>
<path d="M181.372 28.6972H170.753C170.829 32.0841 172.51 34.0704 175.235 34.0704C177.68 34.0704 179.335 32.7208 179.691 30.4034H181.347C180.965 33.5611 178.647 35.4456 175.209 35.4456C171.339 35.4456 169.047 32.8226 169.047 28.3662C169.047 23.8842 171.313 21.2358 175.209 21.2358C179.055 21.2358 181.347 23.8588 181.347 28.3662V28.6972H181.372ZM170.779 27.5767H179.666C179.437 24.4445 177.807 22.611 175.235 22.611C172.637 22.611 171.008 24.4445 170.779 27.5767Z" fill="white"/>
<path d="M210.023 28.6972H199.403C199.48 32.0841 201.161 34.0704 203.885 34.0704C206.33 34.0704 207.985 32.7208 208.342 30.4034H209.997C209.615 33.5611 207.298 35.4456 203.86 35.4456C199.989 35.4456 197.697 32.8226 197.697 28.3662C197.697 23.8842 199.964 21.2358 203.86 21.2358C207.705 21.2358 209.997 23.8588 209.997 28.3662V28.6972H210.023ZM199.429 27.5767H208.316C208.087 24.4445 206.457 22.611 203.885 22.611C201.288 22.611 199.658 24.4445 199.429 27.5767Z" fill="white"/>
<path d="M136.656 35.4455C131.283 35.4455 128.125 31.8294 128.125 25.2083C128.125 18.5873 131.716 15.0476 136.656 14.9712C140.934 14.8948 143.863 17.7215 144.652 22.3053H142.946C142.182 18.6637 139.89 16.4992 136.63 16.5246C132.683 16.5756 129.857 19.555 129.857 25.2083C129.857 30.8617 132.378 33.8921 136.63 33.8921C139.788 33.8921 142.106 31.7784 142.92 28.2133H144.627C143.786 32.7207 140.832 35.4455 136.656 35.4455Z" fill="white"/>
<path d="M195.709 21.5414V34.5797C195.709 38.1958 193.29 40.7423 189.292 40.7423C185.905 40.7423 183.741 39.138 183.333 36.2858C183.333 36.2094 183.308 36.1076 183.308 36.0312L184.886 35.802C184.886 35.8529 184.912 35.9293 184.912 35.9803C185.192 38.1194 186.796 39.3417 189.317 39.3417C192.246 39.3417 194.105 37.3299 194.08 34.7579V30.7853H194.029C194.029 33.6884 192.119 35.4455 188.935 35.4455C185.192 35.4455 182.977 32.8225 182.977 28.3406C182.977 23.9096 185.192 21.2612 188.935 21.2612C192.119 21.2612 194.029 23.0183 194.029 25.9214H194.08V21.5414H195.709ZM194.207 28.3406C194.207 24.8264 192.424 22.6618 189.419 22.6618C186.389 22.6618 184.632 24.8009 184.632 28.3406C184.632 31.9058 186.414 34.0194 189.419 34.0194C192.424 34.0194 194.207 31.8803 194.207 28.3406Z" fill="white"/>
<path fill-rule="evenodd" clip-rule="evenodd" d="M0 24.9932L11.2409 36.2341L7.24188 40.2331L18.496 51.4873L43.7593 26.224L32.5184 14.9831L36.2473 11.2541L24.9932 0L0 24.9932ZM24.0986 23.7668H31.1525H31.1779V19.0048H28.4786L23.9458 23.5376C23.8694 23.614 23.742 23.5631 23.742 23.4612V19.0302H11.5696V23.7668H23.4365C23.5383 23.7668 23.5892 23.8941 23.5128 23.9705L18.98 28.5034V38.6132H23.7166V24.1233C23.7166 23.9196 23.8948 23.7668 24.0986 23.7668Z" fill="white"/>
</svg>
